<svg width="301" height="77" viewBox="0 0 301 77" fill="none" xmlns="http://www.w3.org/2000/svg">
<g clip-path="url(#clip0)">
<path d="M43.83 16.61H43.69C41.2696 16.5565 38.8662 17.0254 36.6435 17.9849C34.4208 18.9444 32.4311 20.3719 30.81 22.17C29.179 20.3763 27.1832 18.9522 24.9566 17.9932C22.7299 17.0342 20.3239 16.5626 17.9 16.61H17.76C15.4102 16.5608 13.0759 17.0023 10.9064 17.9063C8.73684 18.8103 6.7797 20.1569 5.16001 21.86C3.47776 23.5286 2.15274 25.5222 1.26564 27.7193C0.378539 29.9164 -0.0520786 32.2711 8.03918e-06 34.64V55.28C-0.0117008 55.9175 0.110404 56.5503 0.358439 57.1377C0.606474 57.725 0.974926 58.2539 1.44001 58.69C1.87614 59.1551 2.40496 59.5235 2.99232 59.7716C3.57968 60.0196 4.21253 60.1417 4.85001 60.13C5.48749 60.1417 6.12033 60.0196 6.70769 59.7716C7.29506 59.5235 7.82387 59.1551 8.26001 58.69C8.72459 58.2535 9.09271 57.7246 9.34071 57.1373C9.58871 56.5501 9.7111 55.9174 9.70001 55.28V34.64C9.65603 33.537 9.83631 32.4366 10.2299 31.4052C10.6235 30.3739 11.2223 29.4332 11.99 28.64C12.7343 27.8595 13.6344 27.2442 14.6319 26.8342C15.6294 26.4241 16.702 26.2285 17.78 26.26H17.92C18.998 26.2285 20.0706 26.4241 21.0681 26.8342C22.0657 27.2442 22.9658 27.8595 23.71 28.64C24.4777 29.4332 25.0765 30.3739 25.4701 31.4052C25.8637 32.4366 26.044 33.537 26 34.64V55.28C25.9861 55.9132 26.1023 56.5426 26.3414 57.1291C26.5805 57.7157 26.9374 58.2469 27.39 58.69C27.8384 59.1441 28.3724 59.5047 28.9612 59.7508C29.55 59.9969 30.1818 60.1236 30.82 60.1236C31.4582 60.1236 32.09 59.9969 32.6788 59.7508C33.2676 59.5047 33.8017 59.1441 34.25 58.69C34.7021 58.2466 35.0587 57.7152 35.2978 57.1288C35.5368 56.5423 35.6533 55.9132 35.64 55.28V34.64C35.596 33.537 35.7763 32.4366 36.1699 31.4052C36.5635 30.3739 37.1623 29.4332 37.93 28.64C38.6743 27.8595 39.5744 27.2442 40.5719 26.8342C41.5694 26.4241 42.642 26.2285 43.72 26.26H43.86C44.938 26.2285 46.0106 26.4241 47.0081 26.8342C48.0057 27.2442 48.9058 27.8595 49.65 28.64C50.4177 29.4332 51.0165 30.3739 51.4101 31.4052C51.8037 32.4366 51.984 33.537 51.94 34.64V55.28C51.9967 56.5269 52.5319 57.7039 53.4343 58.5663C54.3367 59.4286 55.5368 59.9098 56.785 59.9098C58.0332 59.9098 59.2333 59.4286 60.1357 58.5663C61.0381 57.7039 61.5733 56.5269 61.63 55.28V34.64C61.6821 32.2711 61.2515 29.9164 60.3644 27.7193C59.4773 25.5222 58.1523 23.5286 56.47 21.86C54.8457 20.1518 52.8821 18.8023 50.7053 17.8981C48.5284 16.994 46.1865 16.5552 43.83 16.61Z" fill="white"/>
<path d="M85.93 16.56H85.8C83.3343 16.5248 80.8876 16.9966 78.6118 17.9461C76.3359 18.8957 74.2795 20.3027 72.57 22.08C70.7827 23.795 69.3663 25.8584 68.4082 28.1425C67.4502 30.4267 66.9709 32.8832 67 35.36V41.36C66.9685 43.8303 67.446 46.2806 68.4025 48.5585C69.359 50.8363 70.7742 52.8928 72.56 54.6C74.2706 56.3785 76.3287 57.7863 78.6064 58.7359C80.884 59.6855 83.3326 60.1566 85.8 60.12H85.94C90.9125 60.1069 95.6781 58.1285 99.1979 54.6161C102.718 51.1038 104.706 46.3424 104.73 41.37V35.37C104.766 32.8967 104.295 30.4423 103.346 28.1582C102.396 25.8741 100.989 23.8089 99.21 22.09C97.4919 20.3095 95.4271 18.9002 93.143 17.949C90.8589 16.9979 88.404 16.5251 85.93 16.56V16.56ZM95 41.37C94.9868 43.7757 94.0225 46.0785 92.3177 47.7759C90.6128 49.4733 88.3057 50.4274 85.9 50.43H85.8C84.608 50.438 83.4263 50.2091 82.3235 49.7566C81.2207 49.3041 80.2187 48.6371 79.3758 47.7942C78.5329 46.9513 77.8659 45.9493 77.4134 44.8465C76.9609 43.7437 76.732 42.562 76.74 41.37V35.37C76.7426 32.9642 77.6967 30.6572 79.3941 28.9523C81.0914 27.2475 83.3943 26.2832 85.8 26.27H85.94C88.3462 26.2935 90.6472 27.2597 92.3487 28.9613C94.0503 30.6628 95.0165 32.9638 95.04 35.37L95 41.37Z" fill="white"/>
<path d="M189.49 47.27C189.808 47.5494 190.142 47.8098 190.49 48.05C190.139 47.8062 189.805 47.5389 189.49 47.25V47.27Z" fill="white"/>
<path d="M191.73 48.87C191.872 48.9425 192.019 49.006 192.17 49.06C191.8 48.893 191.442 48.6991 191.1 48.48C191.3 48.61 191.5 48.74 191.73 48.87Z" fill="white"/>
<path d="M193.71 49.54C193.281 49.4467 192.859 49.3196 192.45 49.16C192.91 49.32 193.41 49.46 193.71 49.54Z" fill="white"/>
<path d="M238.57 16.6H238.43C235.964 16.5648 233.518 17.0366 231.242 17.9861C228.966 18.9357 226.909 20.3427 225.2 22.12C223.422 23.8393 222.015 25.9046 221.065 28.1886C220.116 30.4726 219.644 32.9268 219.68 35.4V41.4C219.645 43.8657 220.117 46.3124 221.066 48.5882C222.016 50.8641 223.423 52.9205 225.2 54.63C226.909 56.4073 228.966 57.8143 231.242 58.7639C233.518 59.7134 235.964 60.1852 238.43 60.15H238.57C243.542 60.1369 248.308 58.1585 251.828 54.6461C255.348 51.1338 257.336 46.3724 257.36 41.4V35.4C257.396 32.9267 256.925 30.4723 255.976 28.1882C255.026 25.9042 253.619 23.8389 251.84 22.12C250.122 20.3426 248.059 18.9358 245.776 17.9864C243.494 17.0371 241.042 16.5652 238.57 16.6V16.6ZM247.67 41.41C247.657 43.8157 246.693 46.1185 244.988 47.8159C243.283 49.5133 240.976 50.4674 238.57 50.47H238.43C237.238 50.478 236.056 50.2491 234.953 49.7966C233.851 49.3441 232.849 48.6771 232.006 47.8342C231.163 46.9913 230.496 45.9893 230.043 44.8865C229.591 43.7837 229.362 42.602 229.37 41.41V35.41C229.373 33.0042 230.327 30.6972 232.024 28.9923C233.721 27.2875 236.024 26.3232 238.43 26.31H238.57C240.976 26.3335 243.277 27.2997 244.979 29.0013C246.68 30.7028 247.647 33.0038 247.67 35.41V41.41Z" fill="white"/>
<path d="M166.93 16.63C165.649 16.643 164.425 17.1568 163.518 18.0614C162.612 18.966 162.096 20.1895 162.08 21.47V42.11C162.124 43.213 161.944 44.3134 161.55 45.3448C161.156 46.3761 160.558 47.3168 159.79 48.11C159.042 48.8833 158.141 49.4911 157.143 49.8942C156.146 50.2973 155.075 50.4866 154 50.45H153.86C152.782 50.4815 151.709 50.2859 150.712 49.8758C149.714 49.4658 148.814 48.8505 148.07 48.07C147.302 47.2768 146.704 46.3361 146.31 45.3048C145.916 44.2734 145.736 43.173 145.78 42.07V21.47C145.794 20.8368 145.678 20.2074 145.439 19.6209C145.2 19.0343 144.843 18.5031 144.39 18.06C143.942 17.6059 143.408 17.2453 142.819 16.9992C142.23 16.7531 141.598 16.6264 140.96 16.6264C140.322 16.6264 139.69 16.7531 139.101 16.9992C138.512 17.2453 137.978 17.6059 137.53 18.06C137.078 18.5034 136.721 19.0348 136.482 19.6212C136.243 20.2077 136.127 20.8368 136.14 21.47V42.11C136.184 43.213 136.004 44.3134 135.61 45.3448C135.216 46.3761 134.618 47.3168 133.85 48.11C133.106 48.8905 132.206 49.5058 131.208 49.9158C130.211 50.3259 129.138 50.5215 128.06 50.49H127.92C126.842 50.5215 125.769 50.3259 124.772 49.9158C123.774 49.5058 122.874 48.8905 122.13 48.11C121.362 47.3168 120.764 46.3761 120.37 45.3448C119.976 44.3134 119.796 43.213 119.84 42.11V21.47C119.783 20.2231 119.248 19.0461 118.346 18.1837C117.443 17.3214 116.243 16.8402 114.995 16.8402C113.747 16.8402 112.547 17.3214 111.644 18.1837C110.742 19.0461 110.207 20.2231 110.15 21.47V42.11C110.098 44.4789 110.529 46.8336 111.416 49.0307C112.303 51.2278 113.628 53.2214 115.31 54.89C116.931 56.5944 118.89 57.9417 121.061 58.8457C123.232 59.7498 125.568 60.1906 127.92 60.14H128.06C130.49 60.2022 132.905 59.7375 135.139 58.7777C137.373 57.818 139.372 56.3859 141 54.58C142.632 56.375 144.63 57.7999 146.858 58.7589C149.086 59.7179 151.494 60.1888 153.92 60.14H154C156.351 60.1906 158.688 59.7498 160.859 58.8457C163.03 57.9417 164.989 56.5944 166.61 54.89C168.292 53.2214 169.617 51.2278 170.504 49.0307C171.391 46.8336 171.822 44.4789 171.77 42.11V21.47C171.754 20.1912 171.24 18.9691 170.335 18.0648C169.431 17.1605 168.209 16.6456 166.93 16.63V16.63Z" fill="white"/>
<path d="M276.77 31.92C276.056 31.9278 275.374 32.2148 274.869 32.7194C274.365 33.2241 274.078 33.9063 274.07 34.62C274.07 35.52 274.07 36.43 274.07 37.33C274.07 38.26 274.07 39.2 274.07 40.13C274.07 40.8474 274.355 41.5354 274.862 42.0427C275.37 42.55 276.058 42.835 276.775 42.835C277.492 42.835 278.18 42.55 278.688 42.0427C279.195 41.5354 279.48 40.8474 279.48 40.13C279.513 38.2967 279.513 36.46 279.48 34.62C279.477 33.903 279.191 33.2163 278.683 32.7102C278.175 32.2041 277.487 31.92 276.77 31.92V31.92Z" fill="white"/>
<path d="M203 36.13C203 35.4126 202.715 34.7246 202.208 34.2173C201.7 33.71 201.012 33.425 200.295 33.425C199.578 33.425 198.89 33.71 198.382 34.2173C197.875 34.7246 197.59 35.4126 197.59 36.13C197.557 37.9633 197.557 39.8 197.59 41.64C197.59 42.3587 197.876 43.048 198.384 43.5563C198.892 44.0645 199.581 44.35 200.3 44.35C201.019 44.35 201.708 44.0645 202.216 43.5563C202.724 43.048 203.01 42.3587 203.01 41.64C203.01 40.74 203.01 39.83 203.01 38.93C203 38 203 37.06 203 36.13Z" fill="white"/>
<path d="M208.85 21.9C207.154 20.1641 205.122 18.7918 202.879 17.8669C200.635 16.9419 198.227 16.4836 195.8 16.52H195.66C193.241 16.4822 190.839 16.9401 188.604 17.8653C186.368 18.7906 184.345 20.1636 182.66 21.9C180.904 23.5941 179.515 25.6312 178.579 27.8847C177.643 30.1383 177.18 32.5602 177.22 35V71.51C177.22 72.7711 177.721 73.9806 178.613 74.8723C179.504 75.764 180.714 76.265 181.975 76.265C183.236 76.265 184.446 75.764 185.337 74.8723C186.229 73.9806 186.73 72.7711 186.73 71.51V35C186.73 32.6251 187.669 30.3465 189.341 28.6607C191.014 26.9748 193.285 26.0185 195.66 26H195.8C196.979 25.9959 198.148 26.2265 199.237 26.6784C200.326 27.1302 201.315 27.7943 202.145 28.6319C202.975 29.4695 203.63 30.4639 204.072 31.5572C204.514 32.6505 204.735 33.8208 204.72 35V40.88C204.742 42.0568 204.523 43.2257 204.076 44.3144C203.629 45.4031 202.963 46.3886 202.12 47.21C201.296 48.0471 200.312 48.7089 199.226 49.1557C198.14 49.6025 196.974 49.8251 195.8 49.81H195.66C195.08 49.81 194.5 49.7565 193.93 49.65V49.65C192.917 49.4406 191.947 49.062 191.06 48.53C189.99 47.78 189.45 47.32 189.45 47.32C190.007 48.368 190.785 49.2824 191.73 50C192.447 50.5245 193.207 50.9894 194 51.39V68.1C195.188 68.1 196.328 67.628 197.168 66.7878C198.008 65.9477 198.48 64.8082 198.48 63.62V59.12C202.433 58.5962 206.094 56.7534 208.87 53.89C210.61 52.1973 211.985 50.1662 212.911 47.9218C213.836 45.6774 214.292 43.2673 214.25 40.84V35C214.291 32.5636 213.832 30.1447 212.904 27.8919C211.975 25.6391 210.596 23.6 208.85 21.9V21.9Z" fill="white"/>
<path d="M298.44 1.39C297.546 0.500272 296.336 0.000778198 295.075 0.000778198C293.814 0.000778198 292.604 0.500272 291.71 1.39C291.262 1.82585 290.907 2.3487 290.668 2.92649C290.429 3.50427 290.311 4.1248 290.32 4.75V41.32C290.302 43.6827 289.355 45.9435 287.684 47.6142C286.014 49.285 283.753 50.2317 281.39 50.25H281.26C280.086 50.2553 278.922 50.0279 277.836 49.581C276.751 49.1341 275.764 48.4766 274.934 47.6463C274.103 46.816 273.446 45.8294 272.999 44.7436C272.552 43.6578 272.325 42.4942 272.33 41.32V35.44C272.308 34.2632 272.527 33.0943 272.974 32.0056C273.421 30.9169 274.087 29.9314 274.93 29.11C275.754 28.2729 276.738 27.6111 277.824 27.1643C278.91 26.7175 280.076 26.4949 281.25 26.51H281.38C281.937 26.5109 282.492 26.561 283.04 26.66C284.053 26.8686 285.023 27.2473 285.91 27.78C286.98 28.53 287.52 28.99 287.52 28.99C286.976 27.9424 286.212 27.0248 285.28 26.3C284.58 25.7634 283.841 25.2787 283.07 24.85V8.23C282.005 8.38157 281.031 8.91192 280.326 9.72377C279.62 10.5356 279.231 11.5746 279.23 12.65V17.06C275.048 17.4714 271.149 19.3571 268.23 22.38C266.49 24.0727 265.115 26.1038 264.19 28.3482C263.264 30.5926 262.808 33.0027 262.85 35.43V41.31C262.842 43.7338 263.314 46.1352 264.238 48.376C265.161 50.6169 266.519 52.6528 268.233 54.3667C269.947 56.0806 271.983 57.4386 274.224 58.3625C276.465 59.2864 278.866 59.7579 281.29 59.75H281.42C283.839 59.7878 286.241 59.3299 288.477 58.4047C290.712 57.4794 292.735 56.1064 294.42 54.37C296.168 52.6808 297.552 50.6515 298.486 48.4071C299.42 46.1627 299.884 43.7507 299.85 41.32V4.75C299.857 4.12327 299.736 3.50169 299.494 2.92374C299.251 2.34579 298.892 1.82377 298.44 1.39V1.39Z" fill="white"/>
</g>
<defs>
<clipPath id="clip0">
<rect width="300.96" height="76.27" fill="white"/>
</clipPath>
</defs>
</svg>
